<svg width="20" height="20" viewBox="0 0 20 20" fill="none" xmlns="http://www.w3.org/2000/svg">
<path d="M7.95405 0.209727C9.30298 -0.0731397 10.6958 -0.0738207 12.045 0.207727C12.1349 0.801014 12.3574 1.36642 12.6958 1.86191C13.0343 2.3574 13.4801 2.77023 14 3.06973C14.5196 3.37026 15.1002 3.54979 15.6987 3.59498C16.2973 3.64017 16.8983 3.54984 17.457 3.33073C18.3753 4.35879 19.0709 5.56577 19.5 6.87573C19.0314 7.25031 18.6532 7.72568 18.3935 8.26652C18.1338 8.80736 17.9993 9.39977 18 9.99973C18 11.2637 18.586 12.3907 19.502 13.1237C19.0704 14.4326 18.3739 15.6386 17.456 16.6667C16.8974 16.4478 16.2966 16.3575 15.6983 16.4027C15.0999 16.4479 14.5195 16.6273 14 16.9277C13.4805 17.2271 13.0351 17.6397 12.6968 18.1348C12.3585 18.6299 12.1361 19.1949 12.046 19.7877C10.6973 20.0713 9.30439 20.0726 7.95505 19.7917C7.86559 19.1979 7.64335 18.6319 7.30487 18.1359C6.96639 17.6398 6.52038 17.2265 6.00005 16.9267C5.48041 16.6264 4.89975 16.447 4.30124 16.402C3.70272 16.357 3.10176 16.4475 2.54305 16.6667C1.62465 15.6384 0.929052 14.431 0.500047 13.1207C0.96844 12.7464 1.34651 12.2713 1.60618 11.7308C1.86586 11.1904 2.00048 10.5983 2.00005 9.99873C2.00054 9.39861 1.86575 8.8061 1.60571 8.26524C1.34568 7.72439 0.96707 7.24911 0.498047 6.87473C0.929715 5.56585 1.62616 4.35983 2.54405 3.33173C3.1027 3.55068 3.70352 3.64092 4.30184 3.59574C4.90017 3.55055 5.48062 3.3711 6.00005 3.07073C6.51959 2.77132 6.96503 2.35875 7.30331 1.86363C7.64158 1.36852 7.864 0.803568 7.95405 0.210727V0.209727ZM10 12.9997C10.7957 12.9997 11.5588 12.6837 12.1214 12.121C12.684 11.5584 13 10.7954 13 9.99973C13 9.20408 12.684 8.44102 12.1214 7.87841C11.5588 7.3158 10.7957 6.99973 10 6.99973C9.2044 6.99973 8.44134 7.3158 7.87873 7.87841C7.31612 8.44102 7.00005 9.20408 7.00005 9.99973C7.00005 10.7954 7.31612 11.5584 7.87873 12.121C8.44134 12.6837 9.2044 12.9997 10 12.9997Z" fill="#9C99AD"/>
</svg>
