<svg width="145" height="134" viewBox="0 0 145 134" fill="none" xmlns="http://www.w3.org/2000/svg">
<path d="M74.7309 133.553C106.944 133.553 133.057 107.439 133.057 75.2266C133.057 43.0137 106.944 16.9 74.7309 16.9C42.518 16.9 16.4043 43.0137 16.4043 75.2266C16.4043 107.439 42.518 133.553 74.7309 133.553Z" fill="url(#paint0_linear_2222_552)"/>
<path d="M39.5665 97.8126L64.0753 30.5128L115.759 85.1605L55.7311 112.716C46.1153 117.131 35.946 107.754 39.5665 97.8126Z" fill="#E1DCEB"/>
<path d="M96.6037 51.7665C103.74 59.3696 109.492 66.9074 113.024 72.944C114.791 75.9641 115.995 78.5965 116.544 80.6665C116.818 81.7017 116.925 82.5834 116.863 83.296C116.802 84.0067 116.576 84.5324 116.199 84.8861C115.822 85.2397 115.283 85.4324 114.57 85.4485C113.855 85.4647 112.982 85.3023 111.966 84.963C109.935 84.2845 107.384 82.9158 104.482 80.961C98.6811 77.0537 91.5227 70.836 84.3867 63.2329C77.2507 55.6297 71.4988 48.092 67.9666 42.0553C66.1995 39.0352 64.9951 36.4028 64.4466 34.3328C64.1722 33.2976 64.0655 32.416 64.1269 31.7033C64.1881 30.9927 64.4146 30.4669 64.7914 30.1132C65.1682 29.7596 65.7072 29.5669 66.4203 29.5508C67.1354 29.5346 68.0086 29.697 69.0243 30.0363C71.0554 30.7149 73.6063 32.0835 76.5084 34.0383C82.3093 37.9457 89.4677 44.1633 96.6037 51.7665Z" fill="#011625" stroke="#011625" stroke-width="0.496396"/>
<mask id="mask0_2222_552" style="mask-type:alpha" maskUnits="userSpaceOnUse" x="38" y="30" width="78" height="84">
<path d="M39.5665 97.8126L64.0753 30.5128L115.759 85.1605L55.7311 112.716C46.1153 117.131 35.946 107.754 39.5665 97.8126Z" fill="#E1DCEB"/>
</mask>
<g mask="url(#mask0_2222_552)">
<path fill-rule="evenodd" clip-rule="evenodd" d="M62.9266 75.2634C52.5717 61.7026 47.3324 45.5357 45.6426 34.6816L53.9809 33.3834C55.502 43.1535 60.303 57.9227 69.6336 70.142C78.8764 82.2464 92.399 91.6855 111.684 91.6855V100.124C89.1775 100.124 73.3694 88.9392 62.9266 75.2634Z" fill="#011625"/>
<path fill-rule="evenodd" clip-rule="evenodd" d="M64.038 72.67C53.683 59.1092 48.4438 42.9423 46.7539 32.0882L55.0922 30.79C56.6133 40.5601 61.4144 55.3293 70.745 67.5486C79.9877 79.653 93.5103 89.0921 112.795 89.0921V97.5308C90.2889 97.5308 74.4807 86.3458 64.038 72.67Z" fill="white"/>
<path fill-rule="evenodd" clip-rule="evenodd" d="M50.7001 92.306C40.3451 78.7452 35.1059 62.5783 33.416 51.7242L41.7543 50.426C43.2754 60.1961 48.0765 74.9653 57.4071 87.1846C66.6499 99.289 80.1724 108.728 99.4575 108.728V117.167C76.951 117.167 61.1428 105.982 50.7001 92.306Z" fill="white"/>
</g>
<circle cx="86.8899" cy="103.273" r="14.8919" fill="#FE0000"/>
<path fill-rule="evenodd" clip-rule="evenodd" d="M92.9166 98.7543C93.4932 99.3409 93.4851 100.284 92.8986 100.86L85.8287 107.81C85.2492 108.379 84.3202 108.379 83.7408 107.81L80.8828 105C80.2962 104.424 80.2881 103.481 80.8647 102.894C81.4412 102.308 82.3841 102.3 82.9706 102.876L84.7847 104.66L90.8107 98.7363C91.3972 98.1597 92.3401 98.1678 92.9166 98.7543Z" fill="white"/>
<path d="M116.013 32.1737L116.013 32.1736C116.895 29.9357 117.246 27.7037 117.614 25.3643C117.677 24.9657 117.74 24.564 117.806 24.1586L116.013 32.1737ZM116.013 32.1737C115.863 32.5557 115.43 32.7446 115.049 32.5937L115.047 32.5932C114.665 32.4448 114.476 32.0129 114.627 31.6315L114.627 31.6314M116.013 32.1737L114.627 31.6314M114.627 31.6314C115.467 29.4948 115.799 27.3553 116.136 25.1827M114.627 31.6314L116.136 25.1827M116.136 25.1827C116.201 24.7629 116.267 24.342 116.336 23.9195L116.136 25.1827ZM117.191 23.3048C117.598 23.3717 117.872 23.7536 117.806 24.1585L116.336 23.9194C116.402 23.5135 116.786 23.238 117.191 23.3048Z" fill="#011625" stroke="#011625" stroke-width="0.496396"/>
<path d="M121.134 38.1427L121.134 38.1429C120.797 38.377 120.332 38.2928 120.097 37.9561C119.863 37.621 119.946 37.1582 120.283 36.9236C125.281 33.4637 130.178 28.8044 133.82 23.9233L133.82 23.9232C134.064 23.5947 134.532 23.5264 134.863 23.7711C135.192 24.0145 135.261 24.4801 135.016 24.8091C131.284 29.8117 126.261 34.5916 121.134 38.1427Z" fill="#011625" stroke="#011625" stroke-width="0.496396"/>
<path d="M134.892 41.4146L134.892 41.4142C134.779 41.0203 134.366 40.7916 133.97 40.9036C130.276 41.9602 126.14 42.5739 122.335 41.4128L122.335 41.4128C121.941 41.2925 121.524 41.5146 121.405 41.9045L121.405 41.9046C121.285 42.2942 121.506 42.7113 121.9 42.8316L134.892 41.4146ZM134.892 41.4146C135.005 41.8044 134.778 42.2163 134.382 42.3312M134.892 41.4146L134.382 42.3312M134.382 42.3312C130.363 43.4795 125.935 44.0636 121.9 42.8316L134.382 42.3312Z" fill="#011625" stroke="#011625" stroke-width="0.496396"/>
<circle cx="122.137" cy="50.1586" r="2.97838" fill="#1749B3"/>
<circle cx="97.3163" cy="19.3819" r="2.97838" fill="#1749B3"/>
<path d="M103.046 32.5171C102.789 31.4528 101.275 31.4528 101.018 32.5171L100.685 33.8957C100.593 34.276 100.296 34.5729 99.916 34.6648L98.5375 34.9975C97.4732 35.2544 97.4732 36.7683 98.5375 37.0252L99.916 37.358C100.296 37.4498 100.593 37.7467 100.685 38.1271L101.018 39.5056C101.275 40.5699 102.789 40.5699 103.046 39.5056L103.378 38.1271C103.47 37.7467 103.767 37.4498 104.147 37.358L105.526 37.0252C106.59 36.7683 106.59 35.2544 105.526 34.9975L104.147 34.6648C103.767 34.5729 103.47 34.276 103.378 33.8957L103.046 32.5171Z" fill="#1749B3"/>
<path fill-rule="evenodd" clip-rule="evenodd" d="M90.3487 9.6083C90.6497 10.3737 90.2732 11.2382 89.5078 11.5392C87.3231 12.3983 84.5232 15.1655 82.6538 18.6099C81.2309 21.2318 80.5397 23.8796 80.8299 26.0465C81.7041 24.7987 82.7507 23.7751 83.9647 23.1175C86.1407 21.9388 88.6234 22.0639 91.0271 23.7019C93.1273 25.1331 93.9837 27.1696 93.7569 29.1988C93.54 31.1389 92.3566 32.8928 90.751 33.9946C89.1214 35.1129 86.9576 35.6286 84.7257 34.9451C83.4604 34.5576 82.247 33.8084 81.1364 32.6708C80.0771 36.795 80.1152 41.961 81.8661 46.53C82.1604 47.298 81.7764 48.1591 81.0084 48.4535C80.2405 48.7478 79.3793 48.3638 79.085 47.5958C76.7758 41.5701 77.0758 34.6883 78.9588 29.6762C78.9053 29.5795 78.8523 29.4816 78.7997 29.3823C76.8188 25.6422 78.0048 20.932 80.0361 17.1892C82.0831 13.4176 85.3291 9.98197 88.4179 8.76739C89.1833 8.4664 90.0477 8.84289 90.3487 9.6083ZM82.303 29.4202C83.4277 31.0179 84.5946 31.7901 85.5978 32.0973C86.861 32.4841 88.0927 32.2066 89.0658 31.5388C90.0629 30.8546 90.6895 29.8294 90.7969 28.8679C90.8945 27.9955 90.5896 27.008 89.3498 26.1631C87.7785 25.0924 86.4881 25.1379 85.3832 25.7364C84.2815 26.3332 83.1906 27.582 82.303 29.4202Z" fill="#E3E3E3"/>
<path fill-rule="evenodd" clip-rule="evenodd" d="M138.421 67.8509C122.812 62.0491 110.866 69.2634 107.003 73.3438C106.061 74.3393 104.49 74.3823 103.494 73.44C102.499 72.4976 102.456 70.9267 103.398 69.9312C108.304 64.7493 122.268 56.5512 140.151 63.1979C141.436 63.6755 142.09 65.1042 141.613 66.3891C141.135 67.674 139.706 68.3285 138.421 67.8509Z" fill="#CCC6D9"/>
<path fill-rule="evenodd" clip-rule="evenodd" d="M122.541 73.0667C122.89 72.9391 123.256 72.7696 123.539 72.5242C123.875 72.2327 124.011 71.8572 124.103 71.462C124.221 70.9543 124.268 70.4135 124.41 69.905C124.463 69.7161 124.565 69.6447 124.609 69.613C124.719 69.533 124.83 69.5116 124.935 69.5196C125.06 69.5289 125.23 69.5772 125.343 69.7914C125.359 69.822 125.38 69.8687 125.394 69.9327C125.404 69.9796 125.41 70.1263 125.421 70.1868C125.448 70.3357 125.471 70.4847 125.492 70.6344C125.563 71.1329 125.603 71.5563 125.827 72.0142C126.129 72.6359 126.433 73.0163 126.845 73.1847C127.243 73.3477 127.718 73.317 128.326 73.1893C128.384 73.1749 128.441 73.1625 128.498 73.1524C128.766 73.1043 129.022 73.2851 129.075 73.5596C129.128 73.8338 128.957 74.101 128.692 74.1613C128.636 74.1738 128.582 74.1858 128.528 74.1967C127.706 74.4057 126.755 75.1516 126.202 75.8048C126.032 76.0062 125.782 76.5692 125.528 76.9284C125.34 77.1934 125.129 77.368 124.952 77.4298C124.833 77.4713 124.733 77.4649 124.65 77.444C124.53 77.4135 124.431 77.3466 124.354 77.2403C124.312 77.1821 124.274 77.1041 124.255 77.0045C124.247 76.9566 124.246 76.8348 124.246 76.7797C124.194 76.5964 124.131 76.4174 124.084 76.2325C123.974 75.7912 123.758 75.5118 123.501 75.1428C123.26 74.7974 123.002 74.5803 122.623 74.4071C122.574 74.3948 122.177 74.2948 122.036 74.2374C121.831 74.1533 121.734 74.0123 121.698 73.9364C121.638 73.8077 121.632 73.6951 121.644 73.6013C121.662 73.4629 121.722 73.3444 121.829 73.2487C121.896 73.1893 121.995 73.1315 122.128 73.1033C122.231 73.0813 122.503 73.0685 122.541 73.0667ZM124.873 72.3475C124.891 72.3896 124.911 72.432 124.931 72.4748C125.375 73.3853 125.871 73.8937 126.474 74.1403L126.494 74.1483C126.091 74.4561 125.726 74.8001 125.447 75.1298C125.332 75.2656 125.18 75.5476 125.015 75.8369C124.866 75.338 124.622 74.9854 124.315 74.5441C124.08 74.2074 123.834 73.9539 123.532 73.7474C123.767 73.6238 123.99 73.4789 124.185 73.3098C124.509 73.0282 124.724 72.7019 124.873 72.3475Z" fill="#1749B3"/>
<path d="M32.5492 80.8854C32.5119 81.1987 32.227 81.4215 31.9137 81.382C31.6026 81.3424 31.3788 81.0558 31.4184 80.742L32.5492 80.8854ZM32.5492 80.8854L32.7957 80.9147C32.7421 81.3649 32.3325 81.6849 31.8827 81.6283L31.8823 81.6282C31.4358 81.5714 31.1155 81.1611 31.1721 80.7113C31.5411 77.723 32.8184 75.2211 35.0593 73.2043C35.3955 72.9017 35.9142 72.9309 36.2144 73.2696C36.5161 73.6072 36.4873 74.1259 36.152 74.4278L36.1519 74.4279C34.2137 76.1715 33.1151 78.3267 32.7956 80.9158L32.5492 80.8854Z" fill="#011625" stroke="#011625" stroke-width="0.496396"/>
<path d="M6.27335 86.0658L6.27319 86.0657C5.67002 85.8705 5.38256 85.359 5.33987 84.7679C5.29905 84.2263 5.485 83.583 5.59447 83.286C5.81866 82.6763 6.09843 82.0905 6.42324 81.5335C3.87712 78.1216 -0.675571 77.2996 -4.20123 79.6597L-4.20152 79.6599C-4.5793 79.912 -5.08591 79.8075 -5.33739 79.432L-5.3383 79.4306L-5.3383 79.4306C-5.58655 79.0547 -5.48817 78.5452 -5.11069 78.2932M6.27335 86.0658L5.82736 83.3718C6.06499 82.7256 6.36691 82.1059 6.72026 81.5191C4.11735 77.8917 -0.655517 76.9875 -4.33929 79.4534C-4.6019 79.6287 -4.95502 79.5569 -5.13118 79.2939C-5.3051 79.0305 -5.23538 78.6748 -4.97277 78.4995C-0.956213 75.8107 4.19909 76.6277 7.23728 80.3202C7.28867 80.2529 7.34077 80.186 7.39356 80.1198M6.27335 86.0658C6.97914 86.2936 7.53041 86.1819 7.93713 85.8892C8.32503 85.6105 8.56896 85.1578 8.67629 84.6261L8.67631 84.626C8.77852 84.1186 8.75549 83.5174 8.67317 82.9578C8.59915 82.4546 8.47472 81.9686 8.33689 81.5912C8.69729 81.086 9.10198 80.6131 9.54435 80.1766C13.0357 76.7317 19.0401 76.7977 24.275 80.3574M6.27335 86.0658L24.275 80.3574M-5.11069 78.2932C-5.11064 78.2931 -5.1106 78.2931 -5.11055 78.2931L-4.97277 78.4995L-5.11084 78.2933C-5.11079 78.2932 -5.11074 78.2932 -5.11069 78.2932ZM-5.11069 78.2932C-1.00168 75.5425 4.27129 76.367 7.39356 80.1198M7.39356 80.1198C7.70553 79.7282 8.04165 79.3559 8.39696 79.0049L8.39703 79.0048C12.4551 74.9992 19.3272 75.0109 25.1908 78.9984L25.1909 78.9984C26.1354 79.6411 26.956 80.6694 27.6648 81.9249C28.375 83.1827 28.9817 84.6842 29.4911 86.2917C30.4759 89.3981 31.1284 92.9182 31.558 95.7627C31.8895 94.4073 32.2926 93.076 32.735 91.7424L32.735 91.7424C32.9061 91.2267 33.0766 90.7086 33.2475 90.1891C35.2897 83.9825 37.4002 77.5682 41.5981 72.4039L41.5987 72.4031C41.8854 72.0532 42.4009 71.9998 42.7503 72.2886C43.1009 72.5761 43.1502 73.0934 42.8664 73.4429L42.8663 73.4429C38.8452 78.391 36.8246 84.5432 34.8356 90.5992C34.653 91.155 34.4707 91.71 34.2872 92.2632L34.0516 92.185L34.2872 92.2632C33.6036 94.3228 33.0216 96.3615 32.6615 98.4915L32.6614 98.4921C32.6473 98.5739 32.6333 98.6555 32.6192 98.737C32.523 99.2945 32.4284 99.8431 32.3625 100.398L32.1161 100.369M32.1161 100.369C32.1827 99.8068 32.2786 99.2513 32.3747 98.6943C32.3887 98.613 32.4028 98.5316 32.4167 98.4502L24.4146 80.1522C26.2675 81.4128 27.5546 84.4791 28.5111 87.8569C29.8072 92.4321 30.4338 97.6015 30.728 100.029C30.772 100.392 30.8086 100.693 30.8388 100.922C30.8972 101.357 30.9791 101.608 31.0098 101.656C31.1562 101.891 31.3535 101.927 31.488 101.931C31.6824 101.934 31.8273 101.874 31.9386 101.791C32.0888 101.678 32.1992 101.503 32.2243 101.257C32.237 101.121 32.2168 100.938 32.1812 100.745C32.1734 100.705 32.1633 100.664 32.1534 100.624C32.1303 100.53 32.108 100.439 32.1161 100.369ZM32.1161 100.369L32.3627 100.397C32.3627 100.397 32.362 100.404 32.3642 100.422C32.3663 100.44 32.3704 100.462 32.3768 100.491C32.3833 100.52 32.3907 100.549 32.3995 100.585C32.4079 100.62 32.4171 100.658 32.4248 100.698L32.4253 100.7C32.4618 100.898 32.4875 101.108 32.4714 101.28L32.4712 101.282C32.4393 101.595 32.2944 101.833 32.088 101.989L32.0869 101.99C31.9353 102.103 31.7374 102.183 31.4834 102.179L31.4808 102.179C31.3002 102.173 31.0065 102.119 30.7997 101.788C30.7754 101.749 30.757 101.701 30.744 101.664C30.7283 101.619 30.7114 101.563 30.6943 101.496C30.66 101.363 30.6232 101.181 30.5928 100.955L30.5928 100.955C30.5622 100.724 30.5254 100.42 30.4812 100.056C30.1864 97.6249 29.5624 92.4786 28.2723 87.9245L28.2723 87.9245C27.7961 86.2429 27.2402 84.6484 26.577 83.3216C25.9118 81.9908 25.1503 80.9529 24.275 80.3574" fill="#011625" stroke="#011625" stroke-width="0.496396"/>
<defs>
<linearGradient id="paint0_linear_2222_552" x1="74.2813" y1="-2.09254" x2="75.4761" y2="202.742" gradientUnits="userSpaceOnUse">
<stop stop-color="#E9E6E6"/>
<stop offset="0.276042" stop-color="#F7F7F7"/>
</linearGradient>
</defs>
</svg>
