<svg width="34" height="34" viewBox="0 0 34 34" fill="none" xmlns="http://www.w3.org/2000/svg">
<path d="M17.0007 33.6654C7.79565 33.6654 0.333984 26.2037 0.333984 16.9987C0.333984 7.7937 7.79565 0.332031 17.0007 0.332031C26.2057 0.332031 33.6673 7.7937 33.6673 16.9987C33.6673 26.2037 26.2057 33.6654 17.0007 33.6654ZM11.8173 18.9487L11.839 18.937L13.289 23.7204C13.4757 24.2387 13.7323 24.332 14.044 24.2887C14.3573 24.247 14.5223 24.0787 14.7273 23.882L16.7073 21.9687L20.9573 25.1154C21.734 25.5437 22.2923 25.322 22.4857 24.3954L25.2473 11.3587C25.5523 10.1454 25.019 9.6587 24.0773 10.0454L7.85565 16.312C6.74898 16.7554 6.75565 17.3754 7.65565 17.6504L11.8173 18.9504V18.9487Z" fill="white"/>
</svg>
