<svg width="34" height="34" viewBox="0 0 34 34" fill="none" xmlns="http://www.w3.org/2000/svg">
<path d="M0.340673 33.6654L2.59401 25.3854C1.10924 22.8401 0.329167 19.9454 0.334007 16.9987C0.334007 7.7937 7.79567 0.332031 17.0007 0.332031C26.2057 0.332031 33.6673 7.7937 33.6673 16.9987C33.6673 26.2037 26.2057 33.6654 17.0007 33.6654C14.0553 33.6701 11.1618 32.8906 8.61734 31.407L0.340673 33.6654ZM10.9857 9.1787C10.7704 9.19206 10.5601 9.24875 10.3673 9.34536C10.1865 9.44775 10.0215 9.57574 9.87734 9.72536C9.67734 9.9137 9.56401 10.077 9.44234 10.2354C8.82636 11.037 8.49502 12.0211 8.50067 13.032C8.50401 13.8487 8.71734 14.6437 9.05067 15.387C9.73234 16.8904 10.854 18.482 12.3357 19.957C12.6923 20.312 13.0407 20.6687 13.4157 21.0004C15.2547 22.6195 17.4461 23.7871 19.8157 24.4104L20.764 24.5554C21.0723 24.572 21.3807 24.5487 21.6907 24.5337C22.1761 24.5086 22.65 24.3772 23.079 24.1487C23.3557 24.002 23.4857 23.9287 23.7173 23.782C23.7173 23.782 23.789 23.7354 23.9257 23.632C24.1507 23.4654 24.289 23.347 24.4757 23.152C24.614 23.0087 24.734 22.8404 24.8257 22.6487C24.9557 22.377 25.0857 21.8587 25.139 21.427C25.179 21.097 25.1673 20.917 25.1623 20.8054C25.1557 20.627 25.0073 20.442 24.8457 20.3637L23.8757 19.9287C23.8757 19.9287 22.4257 19.297 21.5407 18.8937C21.4474 18.853 21.3474 18.8299 21.2457 18.8254C21.1316 18.8137 21.0164 18.8265 20.9078 18.863C20.7991 18.8995 20.6995 18.9588 20.6157 19.037V19.0337C20.6073 19.0337 20.4957 19.1287 19.2907 20.5887C19.2215 20.6816 19.1262 20.7519 19.017 20.7905C18.9078 20.829 18.7895 20.8342 18.6773 20.8054C18.5687 20.7763 18.4624 20.7396 18.359 20.6954C18.1523 20.6087 18.0807 20.5754 17.939 20.5137L17.9307 20.5104C16.9772 20.0941 16.0944 19.5318 15.314 18.8437C15.104 18.6604 14.909 18.4604 14.709 18.267C14.0533 17.6391 13.4819 16.9287 13.009 16.1537L12.9107 15.9954C12.84 15.889 12.7829 15.7742 12.7407 15.6537C12.6773 15.4087 12.8423 15.212 12.8423 15.212C12.8423 15.212 13.2473 14.7687 13.4357 14.5287C13.5925 14.3292 13.7388 14.1217 13.874 13.907C14.0707 13.5904 14.1323 13.2654 14.029 13.0137C13.5623 11.8737 13.079 10.7387 12.5823 9.61203C12.484 9.3887 12.1923 9.2287 11.9273 9.19703C11.8373 9.18703 11.7473 9.17703 11.6573 9.17036C11.4335 9.15924 11.2092 9.16147 10.9857 9.17703V9.1787Z" fill="white"/>
</svg>
